
                     $$TheAaax9$$

The Prestige[dual-audio][hindi-eng]

screenshots:- 
http://www.freeimagehosting.net/uploads/0ca801cbc0.png 
http://www.freeimagehosting.net/uploads/710c348e3e.png 
http://www.freeimagehosting.net/uploads/1a0dd2c1f9.png 
http://www.freeimagehosting.net/uploads/90146920f6.png 
http://www.freeimagehosting.net/uploads/72b833bf5a.png 
http://www.freeimagehosting.net/uploads/e8a71eaf9c.png 
http://www.freeimagehosting.net/uploads/b20b3a8e8e.png

General
Complete name                    : The Prestige[dual-audio][hindi-eng]by TheAaax9
IMDB                             : http://www.imdb.com/title/tt0482571
Format                           : Matroska
File size                        : 994 MiB
Duration                         : 2h 10mn
Overall bit rate                 : 1 065 Kbps

Video
Format                           : MPEG-4 Visual
Format profile                   : AdvancedSimple@L5
Format settings, BVOP            : Yes
Format settings, QPel            : No
Format settings, GMC             : No warppoints
Format settings, Matrix          : Default (H.263)
Codec ID                         : DX50
Codec ID/Hint                    : DivX 5
Duration                         : 2h 10mn
Bit rate                         : 627 Kbps
Width                            : 572 pixels
Height                           : 236 pixels
Display aspect ratio             : 2.40:1
Frame rate                       : 23.976 fps
Resolution                       : 24 bits
Colorimetry                      : 4:2:0
Scan type                        : Progressive
Bits/(Pixel*Frame)               : 0.194
Stream size                      : 585 MiB (59%)

Audio #1
Language                         : Hindi
Format                           : MPEG Audio
Format version                   : Version 1
Format profile                   : Layer 3
Codec ID                         : A_MPEG/L3
Codec ID/Hint                    : MP3
Duration                         : 2h 10mn
Bit rate mode                    : Constant
Bit rate                         : 320 Kbps
Channel(s)                       : 2 channels
Sampling rate                    : 44.1 KHz
Resolution                       : 16 bits
Stream size                      : 299 MiB (30%)

Audio #2
Language                         : English
Format                           : MPEG Audio
Format version                   : Version 1
Format profile                   : Layer 3
Codec ID                         : A_MPEG/L3
Codec ID/Hint                    : MP3
Duration                         : 2h 10mn
Bit rate mode                    : Constant
Bit rate                         : 96.0 Kbps
Channel(s)                       : 2 channels
Sampling rate                    : 48.0 KHz
Resolution                       : 16 bits
Stream size                      : 89.6 MiB (9%)

screenshots:- 
http://www.freeimagehosting.net/uploads/0ca801cbc0.png 
http://www.freeimagehosting.net/uploads/710c348e3e.png 
http://www.freeimagehosting.net/uploads/1a0dd2c1f9.png 
http://www.freeimagehosting.net/uploads/90146920f6.png 
http://www.freeimagehosting.net/uploads/72b833bf5a.png 
http://www.freeimagehosting.net/uploads/e8a71eaf9c.png 
http://www.freeimagehosting.net/uploads/b20b3a8e8e.png

                         by TheAaax9

                           $$TheAaax9$$
